<?xml version="1.0" encoding="utf-8"?>
<!-- Generator: Adobe Illustrator 16.0.0, SVG Export Plug-In . SVG Version: 6.00 Build 0)  -->
<!DOCTYPE svg PUBLIC "-//W3C//DTD SVG 1.1//EN" "http://www.w3.org/Graphics/SVG/1.1/DTD/svg11.dtd">
<svg version="1.1" id="레이어_1" xmlns="http://www.w3.org/2000/svg" xmlns:xlink="http://www.w3.org/1999/xlink" x="0px"
	 y="0px" width="511.936px" height="402.949px" viewBox="0 0 511.936 402.949" enable-background="new 0 0 511.936 402.949"
	 xml:space="preserve">
<g>
	<path fill="none" d="M-0.495,311.064c0-102.291,0.018-204.584-0.083-306.875C-0.581,0.95-0.18-0.003,3.418,0
		c168.432,0.12,336.863,0.115,505.296,0.022c3.18-0.002,3.803,0.788,3.801,3.854c-0.086,132.446-0.084,264.894-0.014,397.339
		c0.002,2.908-0.381,3.934-3.723,3.932c-168.6-0.105-337.198-0.105-505.796-0.008c-3.038,0.002-3.579-0.68-3.559-3.605
		c0.147-22.156,0.081-44.314,0.081-66.471c0.288,1.121,0.625,2.232,0.854,3.369c6.706,33.004,36.996,61.244,74.13,56.145
		c22.957-3.152,40.338-12.514,49.352-34.867c5.917-14.672,12.413-29.107,18.634-43.66c2.514-5.881,2.488-5.877,7.727-2.654
		c7.913,4.863,16.369,8.463,25.716,8.877c28.646,1.27,49.688-11.205,63.451-36.111c1.623-2.938,3.383-4.043,6.609-3.949
		c6.493,0.188,12.999,0.176,19.495,0.004c3.063-0.08,4.848,0.977,6.236,3.777c3.602,7.254,8.598,13.498,15.063,18.418
		c22.742,17.299,47.613,19.113,73.713,9.4c4.559-1.695,6.063-0.635,7.768,3.293c6.77,15.584,13.777,31.063,20.705,46.578
		c2.258,5.055,5.033,9.797,8.998,13.713c17.293,17.076,38.752,20.238,61.189,16.131c30.162-5.521,52.508-33.678,52.574-64.473
		c0.039-18.82-2.369-37.531-3.418-56.309c-0.771-13.789-1.883-27.559-2.898-41.332c-1.529-20.742-3.248-41.469-4.635-62.221
		c-1.682-25.184-11.533-46.329-30.777-62.778c-15.578-13.317-33.986-20.101-54.223-22.009c-26.578-2.505-50.863,2.226-69.68,23.139
		c-2.068,2.297-4.273,3.26-7.381,3.249c-25.494-0.098-50.99-0.045-76.488-0.063c-5.521-0.004-5.798-0.623-5.1-6.133
		c1.264-9.965,6.207-18.151,11.875-26.078c11.762-16.444,13.91-35.355,13.543-54.764c-0.117-6.225-5.408-10.655-11.232-10.55
		c-5.682,0.102-10.252,4.35-10.969,10.363c-0.236,1.975-0.141,3.993-0.154,5.991c-0.105,14.845-3.25,28.667-12.655,40.7
		c-8.136,10.409-11.941,22.643-13.115,35.625c-0.367,4.052-1.866,4.941-5.545,4.915c-18.831-0.136-37.662-0.134-56.492,0.004
		c-3.325,0.024-5.614-1.086-7.766-3.516c-11.301-12.774-25.68-19.863-42.398-22.397c-13.836-2.098-27.519-1.082-41.155,1.95
		c-36.112,8.028-65.935,40.813-69.888,77.481c-1.426,13.229-2.128,26.536-3.15,39.807c-1.942,25.215-3.853,50.434-5.832,75.646
		C1.366,290.211,0.402,300.635-0.495,311.064z"/>
	<path fill="#BFBFBF" d="M-0.495,311.064c0.897-10.43,1.861-20.855,2.681-31.289c1.979-25.213,3.89-50.432,5.832-75.646
		c1.022-13.271,1.725-26.578,3.15-39.807c3.953-36.669,33.775-69.453,69.888-77.481c13.638-3.032,27.319-4.047,41.155-1.95
		c16.719,2.535,31.098,9.624,42.398,22.397c2.151,2.43,4.44,3.541,7.766,3.516c18.83-0.138,37.662-0.14,56.492-0.004
		c3.679,0.026,5.178-0.862,5.545-4.915c1.174-12.982,4.979-25.216,13.115-35.625c9.406-12.033,12.548-25.855,12.654-40.7
		c0.016-1.999-0.08-4.016,0.154-5.991c0.719-6.013,5.289-10.262,10.971-10.363c5.822-0.105,11.115,4.325,11.232,10.55
		c0.365,19.409-1.783,38.319-13.543,54.764c-5.67,7.926-10.611,16.113-11.875,26.078c-0.7,5.51-0.424,6.129,5.1,6.133
		c25.496,0.018,50.992-0.035,76.488,0.063c3.105,0.012,5.313-0.951,7.379-3.249c18.816-20.913,43.104-25.644,69.68-23.139
		c20.236,1.908,38.645,8.691,54.225,22.009c19.242,16.449,29.096,37.594,30.777,62.778c1.387,20.751,3.104,41.479,4.635,62.221
		c1.016,13.773,2.125,27.543,2.896,41.332c1.051,18.775,3.459,37.486,3.418,56.309c-0.066,30.795-22.412,58.949-52.574,64.473
		c-22.438,4.109-43.896,0.945-61.189-16.131c-3.965-3.916-6.738-8.658-8.996-13.713c-6.93-15.516-13.938-30.994-20.705-46.578
		c-1.705-3.926-3.209-4.988-7.77-3.293c-26.1,9.713-50.969,7.896-73.711-9.4c-6.467-4.92-11.463-11.164-15.063-18.418
		c-1.391-2.801-3.176-3.857-6.238-3.777c-6.494,0.172-13,0.184-19.494-0.004c-3.228-0.094-4.986,1.012-6.609,3.949
		c-13.763,24.906-34.805,37.383-63.451,36.111c-9.347-0.414-17.802-4.012-25.716-8.877c-5.238-3.223-5.211-3.227-7.727,2.654
		c-6.221,14.553-12.717,28.988-18.634,43.66c-9.014,22.355-26.396,31.715-49.351,34.867C37.355,399.68,7.066,371.436,0.36,338.434
		c-0.229-1.137-0.566-2.248-0.854-3.369C-0.495,327.063-0.495,319.064-0.495,311.064z M255.339,259.783
		c6.833,0,13.665-0.039,20.497,0.01c7.531,0.055,10.984,2.555,13.17,9.684c2.109,6.895,5.82,12.713,11.387,17.264
		c11.949,9.773,25.854,11.545,40.572,9.537c7.424-1.014,14.051-3.77,19.59-9.092c7.895-7.588,16.107-5.918,20.631,4.133
		c9.295,20.66,18.617,41.307,27.646,62.08c3.66,8.422,9.686,13.73,18.266,16.467c5.926,1.889,12.068,2.629,18.209,2.771
		c22.623,0.514,43.156-19.18,43.912-41.936c0.432-13.014-1.404-25.916-2.125-38.875c-0.848-15.283-2.008-30.551-3.131-45.816
		c-1.867-25.391-3.912-50.765-5.697-76.158c-1.248-17.788-8.035-32.882-21.354-44.784c-17.395-15.547-38.307-20.057-60.887-18.397
		c-14.816,1.09-27.408,6.979-36.232,19.359c-3.668,5.145-8.381,7.139-14.5,7.133c-59.82-0.056-119.645-0.062-179.467,0.009
		c-6.328,0.008-11.066-2.134-14.886-7.388c-7.837-10.779-18.624-16.773-31.873-18.589c-8.493-1.165-16.893-0.982-25.367,0.091
		c-28.22,3.574-52.087,24.523-58.902,52.092c-3.218,13.013-2.786,26.442-3.95,39.682c-1.706,19.393-2.961,38.827-4.4,58.243
		c-1.587,21.402-3.722,42.785-4.614,64.221c-1.334,32.012,20.893,53.025,52.484,50.215c13.368-1.189,23.941-6.814,28.62-20.48
		c0.914-2.67,2.254-5.189,3.372-7.793c7.957-18.516,15.825-37.07,23.896-55.537c4.034-9.232,12.396-10.809,19.657-3.955
		c1.454,1.371,2.81,2.85,4.275,4.207c5.202,4.813,11.018,8.625,17.893,10.6c19.875,5.707,42.809-7.508,49.639-28.574
		c2.63-8.111,5.701-10.383,14.174-10.414C242.342,259.762,248.841,259.781,255.339,259.783z"/>
	<path fill="none" d="M255.339,259.783c-6.498-0.002-12.997-0.021-19.496,0.004c-8.474,0.031-11.544,2.303-14.174,10.414
		c-6.831,21.066-29.764,34.281-49.639,28.574c-6.875-1.977-12.69-5.787-17.893-10.602c-1.467-1.355-2.821-2.836-4.275-4.205
		c-7.261-6.854-15.623-5.277-19.657,3.953c-8.07,18.469-15.938,37.023-23.896,55.539c-1.118,2.604-2.458,5.123-3.372,7.793
		c-4.679,13.666-15.251,19.289-28.62,20.48c-31.592,2.813-53.818-18.203-52.484-50.215c0.893-21.436,3.027-42.816,4.614-64.223
		c1.439-19.416,2.694-38.848,4.4-58.241c1.164-13.24,0.732-26.669,3.95-39.682c6.814-27.569,30.683-48.519,58.903-52.092
		c8.474-1.073,16.873-1.256,25.366-0.091c13.249,1.816,24.036,7.811,31.873,18.589c3.819,5.253,8.558,7.396,14.887,7.388
		c59.822-0.07,119.646-0.064,179.468-0.009c6.117,0.006,10.832-1.988,14.498-7.133c8.824-12.38,21.418-18.269,36.232-19.359
		c22.58-1.66,43.492,2.851,60.887,18.397c13.316,11.902,20.104,26.996,21.354,44.784c1.785,25.393,3.83,50.769,5.697,76.156
		c1.123,15.27,2.283,30.535,3.131,45.818c0.721,12.959,2.557,25.861,2.125,38.875c-0.756,22.756-21.289,42.447-43.912,41.934
		c-6.139-0.141-12.283-0.881-18.209-2.77c-8.58-2.736-14.605-8.045-18.266-16.467c-9.029-20.773-18.352-41.42-27.646-62.08
		c-4.523-10.051-12.736-11.721-20.631-4.133c-5.539,5.322-12.166,8.078-19.59,9.092c-14.721,2.008-28.623,0.236-40.572-9.537
		c-5.564-4.551-9.275-10.369-11.387-17.264c-2.186-7.129-5.639-9.629-13.17-9.684C269.003,259.744,262.171,259.783,255.339,259.783z
		 M84.277,183.24c-0.018,0-0.034,0-0.052,0c0,2.666-0.143,5.34,0.036,7.994c0.236,3.517-1.304,4.728-4.711,4.606
		c-4.991-0.18-9.994-0.104-14.99-0.021c-7.14,0.119-12.254,4.792-12.254,11.074c0,6.484,4.838,11.168,12.014,11.379
		c5.16,0.154,10.33,0.154,15.49,0.016c3.176-0.084,4.549,1.084,4.454,4.357c-0.148,5.158-0.136,10.33,0.011,15.49
		c0.205,7.215,4.922,12.17,11.287,12.094c6.415-0.078,11.03-5.064,11.166-12.205c0.092-4.828,0.205-9.67-0.027-14.488
		c-0.187-3.82,1.054-5.477,5.089-5.277c5.149,0.254,10.333,0.219,15.485-0.025c6.837-0.324,11.575-5.229,11.42-11.422
		c-0.154-6.199-5.065-10.829-11.852-10.979c-5.328-0.118-10.663-0.128-15.991-0.012c-3.012,0.066-4.173-1.18-4.122-4.155
		c0.1-5.661,0.188-11.335-0.08-16.987c-0.292-6.178-5.093-10.723-10.943-10.832c-6.061-0.112-10.979,4.51-11.398,10.902
		C84.124,177.567,84.277,180.409,84.277,183.24z M383.792,175.229c0.057-12.315-9.279-21.975-21.467-22.213
		c-11.699-0.229-21.971,9.905-22.096,21.803c-0.127,12.068,10.129,22.338,22.189,22.22
		C374.271,196.923,383.738,187.26,383.792,175.229z M447.784,174.93c-0.031-12.228-9.676-21.94-21.766-21.921
		c-11.793,0.019-21.836,10.206-21.797,22.109c0.039,11.877,10.049,21.858,21.99,21.923
		C438.191,197.105,447.818,187.24,447.784,174.93z M383.794,239.086c0.053-12.234-9.447-21.951-21.594-22.082
		c-11.736-0.125-21.863,9.984-21.977,21.939c-0.111,11.814,9.816,21.867,21.822,22.09
		C373.972,261.254,383.741,251.393,383.794,239.086z M447.786,238.994c0.027-12.207-9.568-21.938-21.686-21.992
		c-11.766-0.051-21.82,10.072-21.885,22.033c-0.064,11.814,9.939,21.857,21.914,21.998
		C438.085,261.172,447.759,251.326,447.786,238.994z M223.197,218.273c0-0.012,0-0.023,0-0.035c3.824,0,7.669,0.244,11.471-0.055
		c6.248-0.49,10.716-5.314,10.702-11.113c-0.016-6.095-4.628-10.96-11.138-11.179c-7.144-0.241-14.307-0.235-21.451-0.005
		c-6.535,0.212-11.167,5.044-11.186,11.125c-0.019,6.047,4.599,10.82,11.127,11.225
		C216.203,218.449,219.706,218.273,223.197,218.273z M287.9,195.845c-3.824,0-7.662-0.193-11.473,0.045
		c-6.225,0.389-10.721,5.083-10.844,10.967c-0.121,5.801,4.309,10.98,10.479,11.281c7.629,0.365,15.311,0.389,22.936-0.031
		c6.201-0.344,10.598-5.627,10.359-11.379c-0.246-5.925-4.729-10.474-10.98-10.85C294.896,195.669,291.394,195.841,287.9,195.845z"
		/>
	<path fill="#BFBFBF" d="M84.277,183.24c0-2.832-0.153-5.673,0.031-8.492c0.419-6.392,5.338-11.014,11.398-10.902
		c5.851,0.108,10.652,4.653,10.943,10.832c0.268,5.651,0.18,11.326,0.08,16.987c-0.052,2.975,1.109,4.221,4.122,4.155
		c5.328-0.116,10.663-0.106,15.991,0.012c6.786,0.15,11.697,4.78,11.852,10.979c0.155,6.193-4.583,11.098-11.42,11.422
		c-5.152,0.244-10.336,0.279-15.485,0.025c-4.035-0.199-5.274,1.457-5.089,5.277c0.232,4.818,0.119,9.66,0.027,14.488
		c-0.135,7.143-4.751,12.127-11.166,12.205c-6.365,0.076-11.082-4.879-11.287-12.094c-0.146-5.16-0.159-10.332-0.011-15.49
		c0.095-3.273-1.278-4.441-4.454-4.357c-5.16,0.139-10.33,0.139-15.49-0.016c-7.176-0.211-12.014-4.895-12.014-11.379
		c0-6.282,5.114-10.955,12.254-11.074c4.997-0.083,10-0.159,14.99,0.021c3.408,0.122,4.948-1.089,4.711-4.606
		c-0.179-2.654-0.036-5.328-0.036-7.994C84.243,183.24,84.26,183.24,84.277,183.24z"/>
	<path fill="#BFBFBF" d="M383.792,175.229c-0.055,12.032-9.521,21.695-21.373,21.81c-12.061,0.118-22.316-10.152-22.189-22.22
		c0.125-11.898,10.396-22.032,22.098-21.803C374.513,153.254,383.849,162.913,383.792,175.229z"/>
	<path fill="#BFBFBF" d="M447.784,174.93c0.033,12.31-9.594,22.175-21.572,22.11c-11.939-0.064-21.951-10.045-21.99-21.923
		c-0.039-11.903,10.004-22.09,21.797-22.109C438.109,152.99,447.753,162.702,447.784,174.93z"/>
	<path fill="#BFBFBF" d="M383.794,239.086c-0.053,12.307-9.822,22.168-21.748,21.947c-12.004-0.223-21.934-10.273-21.82-22.09
		c0.111-11.955,10.238-22.064,21.975-21.939C374.347,217.135,383.847,226.852,383.794,239.086z"/>
	<path fill="#BFBFBF" d="M447.786,238.994c-0.027,12.332-9.701,22.178-21.656,22.039c-11.973-0.141-21.979-10.184-21.914-21.998
		c0.064-11.961,10.121-22.084,21.887-22.033C438.218,217.057,447.814,226.787,447.786,238.994z"/>
	<path fill="#BFBFBF" d="M223.197,218.273c-3.492,0-6.995,0.176-10.475-0.037c-6.528-0.402-11.146-5.178-11.127-11.225
		c0.021-6.083,4.65-10.915,11.186-11.125c7.145-0.23,14.309-0.236,21.451,0.005c6.51,0.219,11.122,5.084,11.138,11.179
		c0.014,5.799-4.454,10.623-10.702,11.113c-3.802,0.299-7.646,0.055-11.471,0.055C223.197,218.25,223.197,218.262,223.197,218.273z"
		/>
	<path fill="#BFBFBF" d="M287.9,195.843c3.492-0.002,6.996-0.174,10.477,0.036c6.252,0.376,10.734,4.924,10.98,10.85
		c0.236,5.752-4.158,11.035-10.359,11.379c-7.625,0.42-15.307,0.396-22.936,0.031c-6.17-0.301-10.6-5.48-10.479-11.281
		c0.123-5.884,4.619-10.58,10.844-10.967C280.238,195.652,284.075,195.845,287.9,195.843z"/>
</g>
</svg>
